<svg version="1.2" xmlns="http://www.w3.org/2000/svg" viewBox="0 0 762 836" width="762" height="836">
	<title>collection-background</title>
	<style>
		.s0 { fill: #14532d } 
		.s1 { opacity: .8;fill: none;stroke: #ffffff;stroke-linecap: round;stroke-width: 3 } 
	</style>
	<path fill-rule="evenodd" class="s0" d="m0 0h762v836h-762z"/>
	<path class="s1" d="m776 228.5c-21.2 50.3-68.7 132.8-97 180.5-3.6 5.9-7.9 11.7-11.2 17.8-5.2 9.5-8.9 24.2-7.5 34.5 3.1 24 36 45.2 60.2 56.5 17.1 8.1 32 19.2 51 24.3"/>
	<path class="s1" d="m766.5 126.5c-27.4 65.2-108.4 222.8-145 284.6-4.6 7.7-10.1 15.2-14.4 23.1-6.8 12.4-11.5 31.4-9.7 44.7 4 31.3 46.5 58.7 77.7 73.5 22.1 10.4 64.3 36 88.9 42.6"/>
	<path class="s1" d="m763 12.5c-40.7 97-130.2 287.5-184.6 379.5-6.8 11.5-15.1 22.7-21.4 34.4-10 18.4-17 46.7-14.5 66.6 6.1 46.5 69.2 87.3 115.6 109.2 32.8 15.5 68.9 41 105.4 50.8"/>
</svg>