<svg version="1.2" xmlns="http://www.w3.org/2000/svg" viewBox="0 0 506 505" width="506" height="505">
	<title>thumbnail-background</title>
	<defs>
		<clipPath clipPathUnits="userSpaceOnUse" id="cp1">
			<path d="m30 0h445.63c16.56 0 30 13.43 30 30v444.49c0 16.56-13.44 30-30 30h-445.63c-16.57 0-30-13.44-30-30v-444.49c0-16.57 13.43-30 30-30z"/>
		</clipPath>
	</defs>
	<style>
		.s0 { fill: #d6f6d5 } 
		.s1 { opacity: .8;fill: none;stroke: #ffffff;stroke-linecap: round;stroke-width: 3 } 
	</style>
	<path fill-rule="evenodd" class="s0" d="m30 0h445.6c16.6 0 30 13.4 30 30v442.1c0 16.6-13.4 30-30 30h-445.6c-16.6 0-30-13.4-30-30v-442.1c0-16.6 13.4-30 30-30z"/>
	<g id="Clip-Path" clip-path="url(#cp1)">
		<g>
			<path class="s1" d="m509.1 26.9c-21.5 51.6-66.9 134.5-95.6 183.4-3.6 6.1-8 12.1-11.4 18.3-5.3 9.8-9 24.8-7.6 35.4 3.2 24.7 36.5 46.5 61.1 58.1 17.4 8.2 32.5 19.7 51.8 24.9"/>
			<path class="s1" d="m478.7-11.7c-27.6 70.2-86 148.9-122.9 215.5-4.6 8.3-10.3 16.4-14.6 24.8-6.8 13.4-11.6 33.8-9.8 48.2 4.1 33.6 46.9 63.2 78.5 79.1 22.2 12.3 68.3 37.1 95.7 47"/>
			<path class="s1" d="m460.6-87.6c-41.3 99.7-94.3 186-149.3 280.5-6.9 11.8-15.3 23.3-21.8 35.3-10.1 18.9-17.2 47.9-14.6 68.4 6.1 47.7 70.1 89.7 117.2 112.1 33.2 15.9 81.2 45.4 118.2 55.5"/>
		</g>
	</g>
</svg>